<svg xmlns="http://www.w3.org/2000/svg" width="14.082" height="11.065"><defs><style>.a{fill:#fff}</style></defs><path class="a" d="M8.31 7.508a4.99 4.99 0 002.016-1.466 3.13 3.13 0 000-4.039A4.99 4.99 0 008.31.538a7.078 7.078 0 00-2.778-.542 7.08 7.08 0 00-2.778.538 4.99 4.99 0 00-2.015 1.47A3.174 3.174 0 000 4.023a3.088 3.088 0 00.558 1.76A4.592 4.592 0 002.09 7.175q-.079.189-.161.346a1.992 1.992 0 01-.2.3l-.177.228q-.063.082-.2.232t-.181.2c0-.005-.01.007-.031.035s-.033.042-.035.039-.013.01-.031.039l-.028.043-.02.039a.168.168 0 00-.016.047.307.307 0 000 .051.158.158 0 00.008.051.26.26 0 00.09.165.245.245 0 00.161.063h.024a6.589 6.589 0 00.676-.126 6.608 6.608 0 002.185-1.006 7.891 7.891 0 001.383.126 7.071 7.071 0 002.773-.539z"/><path class="a" d="M13.523 7.799a3.067 3.067 0 00-.031-3.572 4.658 4.658 0 00-1.6-1.4 4.044 4.044 0 01-.346 3.19 5.26 5.26 0 01-1.509 1.666 6.958 6.958 0 01-2.075 1.014 8.3 8.3 0 01-2.428.354q-.236 0-.691-.031a6.6 6.6 0 003.709 1.037 7.9 7.9 0 001.383-.126 6.276 6.276 0 002.86 1.132.237.237 0 00.173-.055.29.29 0 00.1-.173c0-.031 0-.049.008-.051s.006-.02 0-.051l-.016-.047-.02-.039a.379.379 0 00-.027-.043.337.337 0 00-.031-.039l-.035-.039-.031-.035q-.039-.047-.181-.2t-.2-.232l-.177-.228a1.987 1.987 0 01-.2-.3q-.082-.157-.161-.346a4.611 4.611 0 001.526-1.386z"/></svg>