<svg xmlns="http://www.w3.org/2000/svg" width="84.969" height="84.924" viewBox="0 0 84.969 84.924"><defs><style>.a{fill:#222121;stroke-miterlimit:10;}.b,.h{fill:#fff;}.b,.c,.d,.e,.f{stroke:rgba(0,0,0,0);}.c{fill:#f2cb00;}.d{fill:#68d200;}.e{fill:#e6494f;}.f{fill:#4fc4f4;}.g,.h{stroke:none;}</style></defs><g transform="translate(341.927 -895.55)"><g class="a" transform="translate(0 0)"><path class="g" d="M -289.6666259765625 976.47314453125 L -292.8659057617188 976.47314453125 L -297.7943725585938 976.47314453125 L -301.0434875488281 976.47314453125 L -305.9719543457031 976.47314453125 L -325.7029724121094 976.47314453125 L -333.8805541992188 976.47314453125 L -337.8805541992188 976.47314453125 L -337.8805541992188 972.47314453125 L -337.8805541992188 964.2955932617188 L -337.8805541992188 951.0858764648438 L -337.927001953125 951.0858764648438 L -337.927001953125 947.0858764648438 L -337.927001953125 938.9083251953125 L -337.927001953125 928.2588500976562 C -337.927001953125 912.4287109375 -325.0482177734375 899.5499267578125 -309.2180786132812 899.5499267578125 L -305.9719543457031 899.5499267578125 L -301.0899658203125 899.5499267578125 L -297.7943725585938 899.5499267578125 L -292.9123840332031 899.5499267578125 L -289.6666259765625 899.5499267578125 C -273.8364868164062 899.5499267578125 -260.9577026367188 912.4287109375 -260.9577026367188 928.2588500976562 L -260.9577026367188 933.9798583984375 L -260.9577026367188 938.9083251953125 L -260.9577026367188 942.1573486328125 L -260.9577026367188 947.0858764648438 L -260.9577026367188 947.7642822265625 C -260.9577026367188 963.5944213867188 -273.8364868164062 976.47314453125 -289.6666259765625 976.47314453125 Z"/><path class="h" d="M -309.2180786132812 903.5499267578125 C -322.84228515625 903.5499267578125 -333.927001953125 914.6346435546875 -333.927001953125 928.2588500976562 L -333.927001953125 938.9083251953125 L -333.927001953125 947.0858764648438 L -333.8805541992188 947.0858764648438 L -333.8805541992188 964.2955932617188 L -333.8805541992188 972.47314453125 L -325.7029724121094 972.47314453125 L -305.9719543457031 972.47314453125 L -301.0434875488281 972.47314453125 L -297.7943725585938 972.47314453125 L -292.8659057617188 972.47314453125 L -289.6666259765625 972.47314453125 C -276.0420532226562 972.47314453125 -264.9577026367188 961.3887939453125 -264.9577026367188 947.7642822265625 L -264.9577026367188 947.0858764648438 L -264.9577026367188 942.1573486328125 L -264.9577026367188 938.9083251953125 L -264.9577026367188 933.9798583984375 L -264.9577026367188 928.2588500976562 C -264.9577026367188 914.6346435546875 -276.0420532226562 903.5499267578125 -289.6666259765625 903.5499267578125 L -292.9123840332031 903.5499267578125 L -297.7943725585938 903.5499267578125 L -301.0899658203125 903.5499267578125 L -305.9719543457031 903.5499267578125 L -309.2180786132812 903.5499267578125 M -309.2180786132812 895.5499267578125 L -305.9719543457031 895.5499267578125 L -301.0899658203125 895.5499267578125 L -297.7943725585938 895.5499267578125 L -292.9123840332031 895.5499267578125 L -289.6666259765625 895.5499267578125 C -271.630859375 895.5499267578125 -256.9577026367188 910.2230834960938 -256.9577026367188 928.2588500976562 L -256.9577026367188 933.9798583984375 L -256.9577026367188 938.9083251953125 L -256.9577026367188 942.1573486328125 L -256.9577026367188 947.0858764648438 C -256.9577026367188 965.7999877929688 -271.630859375 980.47314453125 -289.6666259765625 980.47314453125 L -292.8659057617188 980.47314453125 L -297.7943725585938 980.47314453125 L -301.0434875488281 980.47314453125 L -305.9719543457031 980.47314453125 L -325.7029724121094 980.47314453125 L -333.8805541992188 980.47314453125 L -341.8805541992188 980.47314453125 L -341.8805541992188 972.47314453125 L -341.8805541992188 964.2955932617188 L -341.8805541992188 955.0858764648438 L -341.927001953125 947.0858764648438 L -341.927001953125 938.9083251953125 L -341.927001953125 928.2588500976562 C -341.927001953125 910.2230834960938 -327.2538452148438 895.5499267578125 -309.2180786132812 895.5499267578125 Z"/></g><g transform="translate(-308.694 925.066)"><path class="b" d="M-245.14,1014.252h-4.755a.761.761,0,0,0-.555.238.76.76,0,0,0-.238.555v4.755a.76.76,0,0,0,.238.555.761.761,0,0,0,.555.238h4.755a.76.76,0,0,0,.555-.238.759.759,0,0,0,.238-.555v-4.755a.759.759,0,0,0-.238-.555A.759.759,0,0,0-245.14,1014.252Z" transform="translate(256.394 -994.619)"/><path class="b" d="M-248.546,966.22a8.212,8.212,0,0,0-2.1-2.526,10.737,10.737,0,0,0-2.893-1.644,8.879,8.879,0,0,0-3.19-.614,10.12,10.12,0,0,0-9.193,5.27.781.781,0,0,0-.109.555.771.771,0,0,0,.307.5l3.249,2.477a.948.948,0,0,0,.5.158.771.771,0,0,0,.614-.317,13.523,13.523,0,0,1,2.12-2.279,3.746,3.746,0,0,1,2.14-.574,3.668,3.668,0,0,1,2.13.634,1.791,1.791,0,0,1,.921,1.466,2.223,2.223,0,0,1-.5,1.505,4.888,4.888,0,0,1-1.664,1.109,8.36,8.36,0,0,0-2.833,2.15,4.614,4.614,0,0,0-1.288,3.1v.892a1.491,1.491,0,0,0,.208.743.6.6,0,0,0,.506.367h4.755a.69.69,0,0,0,.555-.307,1.036,1.036,0,0,0,.238-.643,2.7,2.7,0,0,1,.545-1.328,3.887,3.887,0,0,1,1.357-1.288q.772-.435,1.208-.7a10.073,10.073,0,0,0,1.14-.862,5.693,5.693,0,0,0,1.089-1.179,6.386,6.386,0,0,0,.694-1.515,6.35,6.35,0,0,0,.307-2A6.488,6.488,0,0,0-248.546,966.22Z" transform="translate(266.042 -961.435)"/></g><g transform="translate(-325.549 911.936)"><g transform="translate(0)"><g transform="translate(27.908)"><path class="c" d="M-236.307,931.26h8.128A11.394,11.394,0,0,1-216.8,942.641v10.649h5.15V942.641a16.531,16.531,0,0,0-16.531-16.531h-8.128Z" transform="translate(236.307 -926.11)"/></g><g transform="translate(0)"><path class="d" d="M-306.238,953.291V942.641a11.394,11.394,0,0,1,11.381-11.381h8.128v-5.15h-8.128a16.531,16.531,0,0,0-16.531,16.531v10.649Z" transform="translate(311.388 -926.11)"/></g><g transform="translate(27.908 30.43)"><path class="e" d="M-216.8,1007.975v5.607a11.394,11.394,0,0,1-11.381,11.381h-8.128v5.15h8.128a16.531,16.531,0,0,0,16.531-16.531v-5.607Z" transform="translate(236.307 -1007.975)"/></g><g transform="translate(0 30.43)"><path class="f" d="M-286.729,1024.963h-19.509v-16.988h-5.15v22.138h24.659Z" transform="translate(311.388 -1007.975)"/></g></g></g></g></svg>