<svg xmlns="http://www.w3.org/2000/svg" width="84.969" height="84.924"><defs><style>.b{fill:#fff;stroke:transparent}</style></defs><g fill="#222121" stroke-miterlimit="10"><path d="M52.26 80.923H4.046V55.536H4V32.708C4 16.879 16.879 4 32.709 4H52.26c15.83 0 28.71 12.879 28.71 28.709v19.505c0 15.83-12.88 28.71-28.71 28.71z"/><path d="M32.709 8C19.085 8 8 19.085 8 32.709V51.536h.046v25.387h44.215c13.624 0 24.708-11.084 24.708-24.709V32.71c0-13.624-11.084-24.71-24.709-24.71H32.71m0-8H52.26c18.036 0 32.71 14.674 32.71 32.71V51.536c0 18.714-14.674 33.387-32.71 33.387H.046V59.536l-.046-8V32.708C0 14.674 14.673 0 32.709 0z" fill="#fff"/></g><path class="b" d="M44.487 49.149h-4.755a.761.761 0 00-.555.238.76.76 0 00-.238.555v4.755a.76.76 0 00.238.555.761.761 0 00.555.238h4.755a.76.76 0 00.555-.238.759.759 0 00.238-.555v-4.755a.759.759 0 00-.238-.555.759.759 0 00-.555-.238zM50.729 34.301a8.212 8.212 0 00-2.1-2.526 10.737 10.737 0 00-2.893-1.644 8.879 8.879 0 00-3.19-.614 10.12 10.12 0 00-9.193 5.27.781.781 0 00-.109.555.771.771 0 00.307.5l3.249 2.477a.948.948 0 00.5.158.771.771 0 00.614-.317 13.523 13.523 0 012.12-2.279 3.746 3.746 0 012.14-.574 3.668 3.668 0 012.13.634 1.791 1.791 0 01.921 1.466 2.223 2.223 0 01-.5 1.505 4.888 4.888 0 01-1.664 1.109 8.36 8.36 0 00-2.833 2.15 4.614 4.614 0 00-1.288 3.1v.892a1.491 1.491 0 00.208.743.6.6 0 00.506.367h4.755a.69.69 0 00.555-.307 1.036 1.036 0 00.238-.643 2.7 2.7 0 01.545-1.328 3.887 3.887 0 011.357-1.288q.772-.435 1.208-.7a10.073 10.073 0 001.14-.862 5.693 5.693 0 001.089-1.179 6.386 6.386 0 00.694-1.515 6.35 6.35 0 00.307-2 6.488 6.488 0 00-.813-3.15z"/><g><path d="M44.286 21.536h8.128a11.394 11.394 0 0111.379 11.381v10.649h5.15V32.917a16.531 16.531 0 00-16.531-16.531h-8.128z" fill="#f2cb00" stroke="transparent"/><path d="M21.528 43.567v-10.65a11.394 11.394 0 0111.381-11.381h8.128v-5.15h-8.128a16.531 16.531 0 00-16.531 16.531v10.649z" fill="#68d200" stroke="transparent"/><path d="M63.793 46.816v5.607a11.394 11.394 0 01-11.381 11.381h-8.128v5.15h8.128a16.531 16.531 0 0016.531-16.531v-5.607z" fill="#e6494f" stroke="transparent"/><path d="M41.037 63.804H21.528V46.816h-5.15v22.138h24.659z" fill="#4fc4f4" stroke="transparent"/></g></svg>